<mxfile host="Electron" modified="2023-12-30T18:44:15.467Z" agent="Mozilla/5.0 (X11; Linux x86_64) AppleWebKit/537.36 (KHTML, like Gecko) draw.io/22.1.16 Chrome/120.0.6099.109 Electron/28.1.0 Safari/537.36" etag="Sx0VBNDZPgOsd6KwqRMV" version="22.1.16" type="device">
  <diagram id="C5RBs43oDa-KdzZeNtuy" name="Page-1">
    <mxGraphModel dx="2607" dy="1605" grid="1" gridSize="10" guides="1" tooltips="1" connect="1" arrows="1" fold="1" page="1" pageScale="1" pageWidth="850" pageHeight="1100" math="0" shadow="0">
      <root>
        <mxCell id="WIyWlLk6GJQsqaUBKTNV-0" />
        <mxCell id="WIyWlLk6GJQsqaUBKTNV-1" parent="WIyWlLk6GJQsqaUBKTNV-0" />
        <mxCell id="rgEi_WncCJZVdDWMbM2z-34" value="&lt;b id=&quot;docs-internal-guid-37bf1ae9-7fff-d8b7-cc07-cfb594d46fc4&quot; style=&quot;&quot;&gt;&lt;span style=&quot;font-family: &amp;quot;Times New Roman&amp;quot;, serif; color: rgb(0, 0, 0); background-color: transparent; font-style: normal; font-variant: normal; text-decoration: none; vertical-align: baseline;&quot;&gt;&lt;font style=&quot;font-size: 18px;&quot;&gt;Controllers Package&lt;/font&gt;&lt;/span&gt;&lt;/b&gt;" style="shape=folder;fontStyle=1;spacingTop=10;tabWidth=40;tabHeight=14;tabPosition=left;html=1;whiteSpace=wrap;" parent="WIyWlLk6GJQsqaUBKTNV-1" vertex="1">
          <mxGeometry x="60" y="250" width="720" height="230" as="geometry" />
        </mxCell>
        <mxCell id="rgEi_WncCJZVdDWMbM2z-35" value="NotificationController" style="swimlane;fontStyle=1;align=center;verticalAlign=top;childLayout=stackLayout;horizontal=1;startSize=26;horizontalStack=0;resizeParent=1;resizeParentMax=0;resizeLast=0;collapsible=1;marginBottom=0;whiteSpace=wrap;html=1;" parent="WIyWlLk6GJQsqaUBKTNV-1" vertex="1">
          <mxGeometry x="130" y="310" width="160" height="34" as="geometry" />
        </mxCell>
        <mxCell id="rgEi_WncCJZVdDWMbM2z-37" value="" style="line;strokeWidth=1;fillColor=none;align=left;verticalAlign=middle;spacingTop=-1;spacingLeft=3;spacingRight=3;rotatable=0;labelPosition=right;points=[];portConstraint=eastwest;strokeColor=inherit;" parent="rgEi_WncCJZVdDWMbM2z-35" vertex="1">
          <mxGeometry y="26" width="160" height="8" as="geometry" />
        </mxCell>
        <mxCell id="rgEi_WncCJZVdDWMbM2z-39" value="&lt;span id=&quot;docs-internal-guid-37bf1ae9-7fff-d8b7-cc07-cfb594d46fc4&quot; style=&quot;font-weight:normal;&quot;&gt;&lt;/span&gt;AuthenticationController" style="swimlane;fontStyle=1;align=center;verticalAlign=top;childLayout=stackLayout;horizontal=1;startSize=26;horizontalStack=0;resizeParent=1;resizeParentMax=0;resizeLast=0;collapsible=1;marginBottom=0;whiteSpace=wrap;html=1;" parent="WIyWlLk6GJQsqaUBKTNV-1" vertex="1">
          <mxGeometry x="310" y="310" width="190" height="34" as="geometry" />
        </mxCell>
        <mxCell id="rgEi_WncCJZVdDWMbM2z-40" value="" style="line;strokeWidth=1;fillColor=none;align=left;verticalAlign=middle;spacingTop=-1;spacingLeft=3;spacingRight=3;rotatable=0;labelPosition=right;points=[];portConstraint=eastwest;strokeColor=inherit;" parent="rgEi_WncCJZVdDWMbM2z-39" vertex="1">
          <mxGeometry y="26" width="190" height="8" as="geometry" />
        </mxCell>
        <mxCell id="rgEi_WncCJZVdDWMbM2z-41" value="OrderController" style="swimlane;fontStyle=1;align=center;verticalAlign=top;childLayout=stackLayout;horizontal=1;startSize=26;horizontalStack=0;resizeParent=1;resizeParentMax=0;resizeLast=0;collapsible=1;marginBottom=0;whiteSpace=wrap;html=1;" parent="WIyWlLk6GJQsqaUBKTNV-1" vertex="1">
          <mxGeometry x="515" y="310" width="160" height="34" as="geometry" />
        </mxCell>
        <mxCell id="rgEi_WncCJZVdDWMbM2z-42" value="" style="line;strokeWidth=1;fillColor=none;align=left;verticalAlign=middle;spacingTop=-1;spacingLeft=3;spacingRight=3;rotatable=0;labelPosition=right;points=[];portConstraint=eastwest;strokeColor=inherit;" parent="rgEi_WncCJZVdDWMbM2z-41" vertex="1">
          <mxGeometry y="26" width="160" height="8" as="geometry" />
        </mxCell>
        <mxCell id="rgEi_WncCJZVdDWMbM2z-43" value="ProductController" style="swimlane;fontStyle=1;align=center;verticalAlign=top;childLayout=stackLayout;horizontal=1;startSize=26;horizontalStack=0;resizeParent=1;resizeParentMax=0;resizeLast=0;collapsible=1;marginBottom=0;whiteSpace=wrap;html=1;" parent="WIyWlLk6GJQsqaUBKTNV-1" vertex="1">
          <mxGeometry x="515" y="404" width="160" height="34" as="geometry" />
        </mxCell>
        <mxCell id="rgEi_WncCJZVdDWMbM2z-44" value="" style="line;strokeWidth=1;fillColor=none;align=left;verticalAlign=middle;spacingTop=-1;spacingLeft=3;spacingRight=3;rotatable=0;labelPosition=right;points=[];portConstraint=eastwest;strokeColor=inherit;" parent="rgEi_WncCJZVdDWMbM2z-43" vertex="1">
          <mxGeometry y="26" width="160" height="8" as="geometry" />
        </mxCell>
        <mxCell id="rgEi_WncCJZVdDWMbM2z-45" value="PaymentController" style="swimlane;fontStyle=1;align=center;verticalAlign=top;childLayout=stackLayout;horizontal=1;startSize=26;horizontalStack=0;resizeParent=1;resizeParentMax=0;resizeLast=0;collapsible=1;marginBottom=0;whiteSpace=wrap;html=1;" parent="WIyWlLk6GJQsqaUBKTNV-1" vertex="1">
          <mxGeometry x="310" y="400" width="190" height="34" as="geometry" />
        </mxCell>
        <mxCell id="rgEi_WncCJZVdDWMbM2z-46" value="" style="line;strokeWidth=1;fillColor=none;align=left;verticalAlign=middle;spacingTop=-1;spacingLeft=3;spacingRight=3;rotatable=0;labelPosition=right;points=[];portConstraint=eastwest;strokeColor=inherit;" parent="rgEi_WncCJZVdDWMbM2z-45" vertex="1">
          <mxGeometry y="26" width="190" height="8" as="geometry" />
        </mxCell>
        <mxCell id="rgEi_WncCJZVdDWMbM2z-47" value="CategoryController" style="swimlane;fontStyle=1;align=center;verticalAlign=top;childLayout=stackLayout;horizontal=1;startSize=26;horizontalStack=0;resizeParent=1;resizeParentMax=0;resizeLast=0;collapsible=1;marginBottom=0;whiteSpace=wrap;html=1;" parent="WIyWlLk6GJQsqaUBKTNV-1" vertex="1">
          <mxGeometry x="130" y="400" width="160" height="34" as="geometry" />
        </mxCell>
        <mxCell id="rgEi_WncCJZVdDWMbM2z-48" value="" style="line;strokeWidth=1;fillColor=none;align=left;verticalAlign=middle;spacingTop=-1;spacingLeft=3;spacingRight=3;rotatable=0;labelPosition=right;points=[];portConstraint=eastwest;strokeColor=inherit;" parent="rgEi_WncCJZVdDWMbM2z-47" vertex="1">
          <mxGeometry y="26" width="160" height="8" as="geometry" />
        </mxCell>
        <mxCell id="d0excHjlrP6uXnRHWfvJ-0" value="Enums" style="shape=folder;fontStyle=1;tabWidth=110;tabHeight=30;tabPosition=left;html=1;boundedLbl=1;labelInHeader=1;container=1;collapsible=0;whiteSpace=wrap;" vertex="1" parent="WIyWlLk6GJQsqaUBKTNV-1">
          <mxGeometry x="850" y="727" width="390" height="239" as="geometry" />
        </mxCell>
        <mxCell id="d0excHjlrP6uXnRHWfvJ-1" value="" style="html=1;strokeColor=none;resizeWidth=1;resizeHeight=1;fillColor=none;part=1;connectable=0;allowArrows=0;deletable=0;whiteSpace=wrap;" vertex="1" parent="d0excHjlrP6uXnRHWfvJ-0">
          <mxGeometry width="390" height="167.29999999999998" relative="1" as="geometry">
            <mxPoint y="30" as="offset" />
          </mxGeometry>
        </mxCell>
        <mxCell id="rgEi_WncCJZVdDWMbM2z-49" value="«enum»&lt;br&gt;&lt;b&gt;NotificationChannel&lt;/b&gt;" style="html=1;whiteSpace=wrap;" parent="d0excHjlrP6uXnRHWfvJ-0" vertex="1">
          <mxGeometry x="40" y="74.17241379310344" width="140" height="41.206896551724135" as="geometry" />
        </mxCell>
        <mxCell id="rgEi_WncCJZVdDWMbM2z-15" value="«enum»&lt;br&gt;&lt;b&gt;CategoryName&lt;/b&gt;" style="html=1;whiteSpace=wrap;" parent="d0excHjlrP6uXnRHWfvJ-0" vertex="1">
          <mxGeometry x="210" y="74.17241379310344" width="110" height="41.206896551724135" as="geometry" />
        </mxCell>
        <mxCell id="d0excHjlrP6uXnRHWfvJ-6" value="«enum»&lt;br&gt;&lt;b&gt;NotificationLanguage&lt;/b&gt;" style="html=1;whiteSpace=wrap;" vertex="1" parent="d0excHjlrP6uXnRHWfvJ-0">
          <mxGeometry x="40" y="131.86206896551724" width="140" height="41.206896551724135" as="geometry" />
        </mxCell>
        <mxCell id="d0excHjlrP6uXnRHWfvJ-7" value="«enum»&lt;br&gt;&lt;b&gt;OrderStatus&lt;/b&gt;" style="html=1;whiteSpace=wrap;" vertex="1" parent="d0excHjlrP6uXnRHWfvJ-0">
          <mxGeometry x="210" y="131.86206896551724" width="110" height="41.206896551724135" as="geometry" />
        </mxCell>
        <mxCell id="d0excHjlrP6uXnRHWfvJ-8" value="Helpers" style="shape=folder;fontStyle=1;tabWidth=110;tabHeight=30;tabPosition=left;html=1;boundedLbl=1;labelInHeader=1;container=1;collapsible=0;whiteSpace=wrap;" vertex="1" parent="WIyWlLk6GJQsqaUBKTNV-1">
          <mxGeometry x="850" y="260" width="550" height="290" as="geometry" />
        </mxCell>
        <mxCell id="d0excHjlrP6uXnRHWfvJ-9" value="" style="html=1;strokeColor=none;resizeWidth=1;resizeHeight=1;fillColor=none;part=1;connectable=0;allowArrows=0;deletable=0;whiteSpace=wrap;" vertex="1" parent="d0excHjlrP6uXnRHWfvJ-8">
          <mxGeometry width="550" height="260" relative="1" as="geometry">
            <mxPoint y="30" as="offset" />
          </mxGeometry>
        </mxCell>
        <mxCell id="d0excHjlrP6uXnRHWfvJ-14" value="&lt;b&gt;NotificationFactory&lt;/b&gt;" style="swimlane;fontStyle=0;childLayout=stackLayout;horizontal=1;startSize=26;fillColor=none;horizontalStack=0;resizeParent=1;resizeParentMax=0;resizeLast=0;collapsible=1;marginBottom=0;whiteSpace=wrap;html=1;" vertex="1" parent="d0excHjlrP6uXnRHWfvJ-8">
          <mxGeometry x="70.00176470588235" y="130.00444444444446" width="392.3872549019608" height="52" as="geometry" />
        </mxCell>
        <mxCell id="d0excHjlrP6uXnRHWfvJ-15" value="+ createNotification(NotificationSpecs, OrderStatus) : Notification" style="text;strokeColor=none;fillColor=none;align=left;verticalAlign=top;spacingLeft=4;spacingRight=4;overflow=hidden;rotatable=0;points=[[0,0.5],[1,0.5]];portConstraint=eastwest;whiteSpace=wrap;html=1;" vertex="1" parent="d0excHjlrP6uXnRHWfvJ-14">
          <mxGeometry y="26" width="392.3872549019608" height="26" as="geometry" />
        </mxCell>
        <mxCell id="d0excHjlrP6uXnRHWfvJ-18" value="Models" style="shape=folder;fontStyle=1;tabWidth=110;tabHeight=30;tabPosition=left;html=1;boundedLbl=1;labelInHeader=1;container=1;collapsible=0;whiteSpace=wrap;" vertex="1" parent="WIyWlLk6GJQsqaUBKTNV-1">
          <mxGeometry x="140" y="980" width="1900" height="930" as="geometry" />
        </mxCell>
        <mxCell id="d0excHjlrP6uXnRHWfvJ-19" value="" style="html=1;strokeColor=none;resizeWidth=1;resizeHeight=1;fillColor=none;part=1;connectable=0;allowArrows=0;deletable=0;whiteSpace=wrap;" vertex="1" parent="d0excHjlrP6uXnRHWfvJ-18">
          <mxGeometry width="1900" height="893.2894736842105" relative="1" as="geometry">
            <mxPoint y="30" as="offset" />
          </mxGeometry>
        </mxCell>
        <mxCell id="d0excHjlrP6uXnRHWfvJ-31" value="&lt;p style=&quot;margin:0px;margin-top:4px;text-align:center;&quot;&gt;&lt;b&gt;Notification&lt;/b&gt;&lt;/p&gt;&lt;hr size=&quot;1&quot;/&gt;&lt;p style=&quot;margin:0 0 0 4px;line-height:1.6;&quot;&gt;# template: String&lt;br/&gt;# channel: NotificationChannel&lt;br/&gt;# language: NotificationLanguage&lt;/p&gt;&lt;hr size=&quot;1&quot;/&gt;&lt;p style=&quot;margin:0 0 0 4px;line-height:1.6;&quot;&gt;+ setTemplate(String): void&lt;br/&gt;+ getNotificationMessage(): String&lt;br/&gt;+ getTemplate(): String&lt;br/&gt;+ toString(): String&lt;br/&gt;+ getChannel(): NotificationChannel&lt;br/&gt;+ getLanguage(): NotificationLanguage&lt;/p&gt;" style="verticalAlign=top;align=left;overflow=fill;fontSize=14;fontFamily=Helvetica;html=1;rounded=0;shadow=0;comic=0;labelBackgroundColor=none;strokeWidth=1;" vertex="1" parent="d0excHjlrP6uXnRHWfvJ-18">
          <mxGeometry x="256" y="40" width="280" height="260" as="geometry" />
        </mxCell>
        <mxCell id="d0excHjlrP6uXnRHWfvJ-32" value="&lt;p style=&quot;margin:0px;margin-top:4px;text-align:center;&quot;&gt;&lt;b&gt;OrderCancelledNotification&lt;/b&gt;&lt;/p&gt;&lt;hr size=&quot;1&quot;/&gt;&lt;p style=&quot;margin:0 0 0 4px;line-height:1.6;&quot;&gt;- specs: NotificationSpecs&lt;/p&gt;&lt;hr size=&quot;1&quot;/&gt;&lt;p style=&quot;margin:0 0 0 4px;line-height:1.6;&quot;&gt;+ getNotificationMessage(): String&lt;/p&gt;" style="verticalAlign=top;align=left;overflow=fill;fontSize=14;fontFamily=Helvetica;html=1;rounded=0;shadow=0;comic=0;labelBackgroundColor=none;strokeWidth=1;" vertex="1" parent="d0excHjlrP6uXnRHWfvJ-18">
          <mxGeometry x="273.5" y="585" width="240" height="100" as="geometry" />
        </mxCell>
        <mxCell id="d0excHjlrP6uXnRHWfvJ-33" value="&lt;p style=&quot;margin:0px;margin-top:4px;text-align:center;&quot;&gt;&lt;b&gt;OrderPlacedNotification&lt;/b&gt;&lt;/p&gt;&lt;hr size=&quot;1&quot;/&gt;&lt;p style=&quot;margin:0 0 0 4px;line-height:1.6;&quot;&gt;- specs: NotificationSpecs&lt;/p&gt;&lt;hr size=&quot;1&quot;/&gt;&lt;p style=&quot;margin:0 0 0 4px;line-height:1.6;&quot;&gt;+ getNotificationMessage(): String&lt;/p&gt;" style="verticalAlign=top;align=left;overflow=fill;fontSize=14;fontFamily=Helvetica;html=1;rounded=0;shadow=0;comic=0;labelBackgroundColor=none;strokeWidth=1;" vertex="1" parent="d0excHjlrP6uXnRHWfvJ-18">
          <mxGeometry x="540" y="583" width="245" height="110" as="geometry" />
        </mxCell>
        <mxCell id="d0excHjlrP6uXnRHWfvJ-34" value="&lt;p style=&quot;margin:0px;margin-top:4px;text-align:center;&quot;&gt;&lt;b&gt;OrderShippedNotification&lt;/b&gt;&lt;/p&gt;&lt;hr size=&quot;1&quot;/&gt;&lt;p style=&quot;margin:0 0 0 4px;line-height:1.6;&quot;&gt;- specs: NotificationSpecs&lt;/p&gt;&lt;hr size=&quot;1&quot;/&gt;&lt;p style=&quot;margin:0 0 0 4px;line-height:1.6;&quot;&gt;+ getNotificationMessage(): String&lt;/p&gt;" style="verticalAlign=top;align=left;overflow=fill;fontSize=14;fontFamily=Helvetica;html=1;rounded=0;shadow=0;comic=0;labelBackgroundColor=none;strokeWidth=1;" vertex="1" parent="d0excHjlrP6uXnRHWfvJ-18">
          <mxGeometry x="10" y="585" width="246" height="108" as="geometry" />
        </mxCell>
        <mxCell id="d0excHjlrP6uXnRHWfvJ-35" value="" style="html=1;rounded=1;edgeStyle=orthogonalEdgeStyle;dashed=0;startArrow=none;endArrow=block;endSize=12;strokeColor=#000082;exitX=0.500;exitY=0.000;exitDx=0;exitDy=0;entryX=0.500;entryY=1.000;entryDx=0;entryDy=0;" edge="1" parent="d0excHjlrP6uXnRHWfvJ-18" source="d0excHjlrP6uXnRHWfvJ-32" target="d0excHjlrP6uXnRHWfvJ-31">
          <mxGeometry width="50" height="50" relative="1" as="geometry">
            <Array as="points">
              <mxPoint x="396.5" y="585" />
              <mxPoint x="396.5" y="440" />
            </Array>
          </mxGeometry>
        </mxCell>
        <mxCell id="d0excHjlrP6uXnRHWfvJ-36" value="" style="html=1;rounded=1;edgeStyle=orthogonalEdgeStyle;dashed=0;startArrow=none;endArrow=block;endSize=12;strokeColor=#000082;exitX=0.538;exitY=0.011;exitDx=0;exitDy=0;entryX=0.500;entryY=1.000;entryDx=0;entryDy=0;exitPerimeter=0;" edge="1" parent="d0excHjlrP6uXnRHWfvJ-18" source="d0excHjlrP6uXnRHWfvJ-33" target="d0excHjlrP6uXnRHWfvJ-31">
          <mxGeometry width="50" height="50" relative="1" as="geometry">
            <Array as="points">
              <mxPoint x="672" y="580" />
              <mxPoint x="670" y="580" />
              <mxPoint x="670" y="440" />
              <mxPoint x="396" y="440" />
            </Array>
            <mxPoint x="666" y="580" as="sourcePoint" />
          </mxGeometry>
        </mxCell>
        <mxCell id="d0excHjlrP6uXnRHWfvJ-37" value="" style="html=1;rounded=1;edgeStyle=orthogonalEdgeStyle;dashed=0;startArrow=none;endArrow=block;endSize=12;strokeColor=#000082;exitX=0.500;exitY=0.000;exitDx=0;exitDy=0;entryX=0.500;entryY=1.000;entryDx=0;entryDy=0;" edge="1" parent="d0excHjlrP6uXnRHWfvJ-18" source="d0excHjlrP6uXnRHWfvJ-34" target="d0excHjlrP6uXnRHWfvJ-31">
          <mxGeometry width="50" height="50" relative="1" as="geometry">
            <Array as="points" />
          </mxGeometry>
        </mxCell>
        <mxCell id="d0excHjlrP6uXnRHWfvJ-38" value="&lt;p style=&quot;margin:0px;margin-top:4px;text-align:center;&quot;&gt;&lt;b&gt;NotificationSpecs&lt;/b&gt;&lt;/p&gt;&lt;hr size=&quot;1&quot;/&gt;&lt;p style=&quot;margin:0 0 0 4px;line-height:1.6;&quot;&gt;- language: NotificationLanguage&lt;br/&gt;- customerName: String&lt;br/&gt;- refundAmount: double&lt;br/&gt;- channel: NotificationChannel&lt;br/&gt;- nDays: int&lt;br/&gt;- orderNumber: int&lt;/p&gt;&lt;hr size=&quot;1&quot;/&gt;&lt;p style=&quot;margin:0 0 0 4px;line-height:1.6;&quot;&gt;+ getRefundAmount(): double&lt;br/&gt;+ setChannel(NotificationChannel): void&lt;br/&gt;+ setCustomerName(String): void&lt;br/&gt;+ getChannel(): NotificationChannel&lt;br/&gt;+ setLanguage(NotificationLanguage): void&lt;br/&gt;+ setRefundAmount(double): void&lt;br/&gt;+ setOrderNumber(int): void&lt;br/&gt;+ getLanguage(): NotificationLanguage&lt;br/&gt;+ getNumberDays(): int&lt;br/&gt;+ getCustomerName(): String&lt;br/&gt;+ setNumberDays(int): void&lt;br/&gt;+ getOrderNumber(): int&lt;/p&gt;" style="verticalAlign=top;align=left;overflow=fill;fontSize=14;fontFamily=Helvetica;html=1;rounded=0;shadow=0;comic=0;labelBackgroundColor=none;strokeWidth=1;" vertex="1" parent="d0excHjlrP6uXnRHWfvJ-18">
          <mxGeometry x="730" y="40" width="320" height="457" as="geometry" />
        </mxCell>
      </root>
    </mxGraphModel>
  </diagram>
</mxfile>
